# xmcd CD database file
#
# Track frame offsets:
#	150
#	13672
#	27774
#	43244
#	52918
#	64185
#	74071
#	91935
#
# Disc length: 1431 seconds
#
# Revision: 1
# Processed by: cddbd v1.5.2PL0 Copyright (c) Steve Scherf et al.
# Submitted via: CDex 1.51
#
DISCID=69059508
DTITLE=Hal Leonard Corperation - Easy Jazz Ensemble
DYEAR=2008
DGENRE=Jazz
TTITLE0=Superstition
TTITLE1=Time After Time
TTITLE2=You Are the Music in Me
TTITLE3=Big Spender
TTITLE4=Green Onions
TTITLE5=What'd I Say
TTITLE6=Somewhere Out There
TTITLE7=Nobody's Perfect
EXTD=YEAR: 2008
EXTT0=
EXTT1=
EXTT2=
EXTT3=
EXTT4=
EXTT5=
EXTT6=
EXTT7=
PLAYORDER=
